# xmcd
#
# Track frame offsets: 
#        182
#        16107
#        38687
#        55962
#        67552
#        86430
#        103747
#        109670
#        119970
#        130490
#        152952
#        178745
#        190040
#        200697
#        211295
#        224052
#        238045
#        249307
#
# Disc length: 3459 seconds
#
# Revision: 6
# Processed by: cddbd v1.5.2PL0 Copyright (c) Steve Scherf et al.
# Submitted via: ExactAudioCopy v1.3
#
DISCID=050d8112
DTITLE=Eric Clapton and The Yardbirds - Eric's Blues
DYEAR=1990
DGENRE=Blues Rock
TTITLE0=Louise
TTITLE1=Five Years Long
TTITLE2=Early In The Morning
TTITLE3=Pounds and Stomps
TTITLE4=They call it Stormy Monday
TTITLE5=Big Boss Man
TTITLE6=Choker
TTITLE7=Eric's Blues
TTITLE8=A Certain Girl
TTITLE9=First Time I Met The Blues
TTITLE10=She's So Respectable
TTITLE11=Snake Drive
TTITLE12=West Coast Idea
TTITLE13=Got To Hurry
TTITLE14=Freight Loader
TTITLE15=Draggin' My Tail
TTITLE16=For Your Love
TTITLE17=I Wish I Could
EXTD=
EXTT0=
EXTT1=
EXTT2=
EXTT3=
EXTT4=
EXTT5=
EXTT6=
EXTT7=
EXTT8=
EXTT9=
EXTT10=
EXTT11=
EXTT12=
EXTT13=
EXTT14=
EXTT15=
EXTT16=
EXTT17=
PLAYORDER=
